<svg xmlns="http://www.w3.org/2000/svg" xml:space="preserve" viewBox="0 0 335.456 335.456">
  <g transform="matrix(3.77953 0 0 3.77953 -216.436 -127.371)">
    <rect width="88.756" height="88.756" x="57.265" y="33.7" fill="#8269a2" paint-order="markers fill stroke" ry="24.999"/>
    <path fill="#fff" d="M76.555 82.538c-.105.198-.396.093-.361-.128l4.624-21.024c.058-.28.42-.384.606-.151l3.68 4.368a.639.639 0 0 1 .082.698zm-3.261 4.613c-.07.326-.548.268-.548-.058V67.524c0-.256.303-.384.49-.22l3.284 2.946a.62.62 0 0 1 .186.56zm32.066 6.919h-6.651a.856.856 0 0 0-.734.419l-3.54 5.696a.856.856 0 0 1-.735.419h-7.676a.856.856 0 0 1-.733-.42l-3.832-6.639a.852.852 0 0 1 0-.85l3.832-6.64a.856.856 0 0 1 .733-.418H93.7c.303 0 .583.163.734.419l3.518 5.474c.151.257.43.42.734.42h6.65a.845.845 0 0 0 .734-1.27l-7.338-12.079a.856.856 0 0 0-.734-.419l-8.118.035 6.138-10.553a.852.852 0 0 0 0-.85l-3.61-6.266a.503.503 0 0 0-.874 0L72.85 92.707a.852.852 0 0 0 0 .85l8.142 14.105c.151.257.43.42.734.42H98.01a.856.856 0 0 0 .734-.42l7.35-12.323a.845.845 0 0 0-.734-1.27z"/>
    <g fill="#fff">
      <path fill-rule="evenodd" d="M106.645 61.232a1.169 1.169 0 0 1 0-1.653l6.027-6.023c.03-.031.059-.058.089-.086l-.003-.003a4.075 4.075 0 0 1 2.093-1.12 4.527 4.527 0 0 1 1.026-.118h13.94a4.534 4.534 0 0 1 4.535 4.534v13.935c0 .323-.036.642-.102.953a4.057 4.057 0 0 1-1.129 2.156l-.001-.002c-.031.036-.064.067-.096.1l-6.026 6.026a1.169 1.169 0 0 1-1.653-1.653l6.026-6.026c.291-.291.492-.656.585-1.05a1.738 1.738 0 0 0-.487-1.509L116.895 55.12a1.755 1.755 0 0 0-1.555-.487 2.197 2.197 0 0 0-1.015.576l-6.027 6.023a1.169 1.169 0 0 1-1.653 0zm13.002-6.666 12.367 12.367v-10.17a2.197 2.197 0 0 0-2.197-2.197z" clip-rule="evenodd"/>
      <path d="M106.645 79.93a1.169 1.169 0 0 1 0-1.652l10.518-10.518a1.169 1.169 0 0 1 1.653 1.653L108.298 79.93a1.169 1.169 0 0 1-1.653 0z"/>
    </g>
  </g>
</svg>
